<svg xmlns="http://www.w3.org/2000/svg" width="382" height="181" fill="none" xmlns:v="https://vecta.io/nano"><path fill-rule="evenodd" d="M180.5 27.003l-14.5 11v7l3.5 23 6.5 19.5-4 2-13.5 12-10 11.5-5.5 9 1.5 14 6 13 6.5 8 6.5 9 6 5 4.5 1 7.5-1 15-9 12.5-6.5 8.5 9 11 7.5h15l9-7.5v-7.5l-14-3.5-6.5-6-9-13.5 4-12 5-23h17.5l3-14-24-4.5v-5l3.5-20 5-23.5-8.5-7-13-5.5-19-1-16 8.5zm25.5 9h-11.5-2.5l-5 9v8l14 40.5 10 14.5 4.5-9-2-61-7.5-2zm-25.5 115.5h6.5l5-2.5 4.5-3 1.5-9-6-8.5-6-13-4.5-11-2.5-5.5-15.5 21v6.5l2.5 3.5 1.5 4 6.5 12 6.5 5.5z" fill="#0c0000"/><g stroke="#000"><path d="M228.5 25.003l8.5 7-5 23.5-3.5 20v5l24 4.5-3 14H232l-5 23-4 12 9 13.5 6.5 6 14 3.5v7.5l-9 7.5h-15l-11-7.5-8.5-9-12.5 6.5-15 9-7.5 1-4.5-1-6-5-6.5-9-6.5-8-6-13-1.5-14 5.5-9 10-11.5 13.5-12 4-2-6.5-19.5-3.5-23v-7l14.5-11 16-8.5 19 1 13 5.5zm0 0l7.5 6.5m-30 4.5h-11.5-2.5l-5 9v8l14 40.5 10 14.5 4.5-9-2-61-7.5-2zm-19 115.5h-6.5l-6.5-5.5-6.5-12-1.5-4-2.5-3.5v-6.5l15.5-21 2.5 5.5 4.5 11 6 13 6 8.5-1.5 9-4.5 3-5 2.5z"/><path d="M175.5 87.003l-23.5-3.5.5-4 4-.5h3l6.5-8.5 17-35.5 13-26 4.5-3 5-2.5 5.5-2.5 4.5 1 6 3 4 3 .5 11.5 1.5 36.5 1 21.5 1.5 1.5h5.5l3 1 .5 2-9 5-12.5-1-8.5-2.5h-4.5v-3l1-1.5h5.5l1-1.5 2-2v-22h-31l-9.5 20.5-4 3.5v1.5h8.5l7 1v3.5l-4.5 2.5-5 1zm12-42H213v-31l-4-2-2.5-1-3-.5-16 34.5zm-23.443 134.525l-23.5-3.5.5-4 4-.5h3l6.5-8.5 17-35.5 13-26 4.5-3.001 5-2.5 5.5-2.5 4.5 1 6 3 4 3.001.5 11.5 1.5 36.5 1 21.5 1.5 1.5h5.5l3 1 .5 2-9 5-12.5-1-8.5-2.5h-4.5v-3l1-1.5h5.5l1-1.5 2-2v-22h-31l-9.5 20.5-4 3.5v1.5h8.5l7 1v3.5l-4.5 2.5-5 1zm12-42h25.5v-31l-4-2-2.5-1-3-.5-16 34.5zM269.5 87.003l-27-4.5 3-3.5h1.5l4-.5 2.5-2.5 3-7 2-14.5 2.5-10.5 2-10.5 2-11 1-5.5 3.5-6v-2.5h-11v-2l2-1.5 1.5-1 2.5-1h30v5l-2 .5H290l-4 1.5-2.5 1.5-2 4.5-1 5.5-2 8.5-2 9h1.5 12l5-10.5 5.5-8.5 5-7.5 5-5 4-4.5H339v4.5l-3 1-6.5 2.5-5.5 3-5.5 4-6.5 7-12.5 17v2l12.5 28.5 2.5 3 4 2.5 5.5.5.5 4-6 3.5-5 1-6.5-1-5-3-5-9-5-13-4.5-11.5-3-2h-9l-3.5 15.5-2.5 11-2 4 8 1 4 1.5v2.5l-10 4z" fill-rule="evenodd" fill="#550505"/><use href="#B" fill="#550505"/><use href="#B" x="75" fill="#550505"/></g><path fill-rule="evenodd" d="M115 87.003h-13l-13-5.5-5.5-4-4.5-8v-15l3-15.5 4.5-17 4.5-8.5 8.5-5.5 8.5-3.5 10-2.5 7-1.5 8.5.5 11.5 4.5 6.5 4.5 2 6.5v21l-4 15.5-9 21-6 5-13 5.5-6.5 2.5zm-20.5-32v14.5l3.5 3.5 6 3 6.5 1.5h6.5l7-2.5 5-5.5 4-10 3-12 2.5-13v-16.5l-4-3.5-8-3.5H115l-8 2.5-3.5 6.5-3 9.5-3 11.5-1.5 7.5-1.5 6.5z" fill="#550505"/><g stroke="#000"><path d="M115 87.003h-13m13 0l6.5-2.5 13-5.5 6-5 9-21 4-15.5v-21l-2-6.5-6.5-4.5-11.5-4.5-8.5-.5-7 1.5-10 2.5-8.5 3.5-8.5 5.5-4.5 8.5-4.5 17-3 15.5v15l4.5 8 5.5 4 13 5.5m13 0h-13m-7.5-32v14.5l3.5 3.5 6 3 6.5 1.5h6.5l7-2.5 5-5.5 4-10 3-12 2.5-13v-16.5l-4-3.5-8-3.5H115l-8 2.5-3.5 6.5-3 9.5-3 11.5-1.5 7.5-1.5 6.5z"/><path d="M58 121.003v-15l-3.5-1.5-8-2-8.5 1-7 1-4 2.5-3.5 8-4.5 16.5-3 14.5-1 12 1.5 4 5 4.5 7.5 3h7l11.5-2.5 5.5-22H35v-1.5l2.5-7.5 30.5-1.5 1.5 2.5-4 12-5.5 22-11.5 5-11 2.5H22l-6-2-8-4.5-6-5.5-1.5-4.5v-15l2.5-15.5 4-15.5 5.5-11 10-5.5 12-4.5 9-2h11l9 2 9.5 5v3.5l-5 16-2 2.5h-6l-2-1zm47.5 57l-31.5-3 2.5-4 4-.5 4-2 3-6.5 2.5-13.5 5.5-28.5 3-14.5 2.5-2.757v-1.743H89l.5-2.5 2.5-2 3.5-1.5 30-.5v5.5l-5 .5-4 2-2.5 2.5-2 7-3 15.5-3 15.5-3 15.5-4.5 11.5H123l11-21h5l2.5 1-2.5 12.5-4 12-6.5 4-23-.5z" fill="#550505"/></g><defs ><path id="B" d="M237.5 163.003l6-15c1.167 0 4-.4 4 0l2.5 1 .5 8 1 8 5 1.5 7 2h8.5l7-2 3.5-4.5 2.5-8v-6l-4.5-3-7.5-2-7.5-3-12-5-7-4-.5-2.5.5-8.5 2.5-9.5 3.5-7 5.5-4 7-3.5 7-2 5.5-1h10l3.5 1 7.5 2 7.5 4.5-7 20.5h-5.5l-2.5-1v-9.5-5.5l-5-2h-11-6l-3.5 3-3 6.5-2 7.5 1 3 6.5 2.5 13 4.5 14 6 5.5 4v7l-1.5 9.5-5 12-7 4-6.5 3-11.5 3.5h-11l-3.5-1.5-12.5-5-6-3.5v-2.5l1.5-3.5z"/></defs></svg>