<svg width="382" height="181" viewBox="0 0 382 181" fill="none" xmlns="http://www.w3.org/2000/svg">
<path fill-rule="evenodd" clip-rule="evenodd" d="M180.5 27.0031L166 38.0031V45.0031L169.5 68.0031L176 87.5031L172 89.5031L158.5 101.503L148.5 113.003L143 122.003L144.5 136.003L150.5 149.003L157 157.003L163.5 166.003L169.5 171.003L174 172.003L181.5 171.003L196.5 162.003L209 155.503L217.5 164.503L228.5 172.003H243.5L252.5 164.503V157.003L238.5 153.503L232 147.503L223 134.003L227 122.003L232 99.0031H249.5L252.5 85.0031L228.5 80.5031V75.5031L232 55.5031L237 32.0031L228.5 25.0031L215.5 19.5031L196.5 18.5031L180.5 27.0031ZM206 36.0031H194.5H192L187 45.0031V53.0031L201 93.5031L211 108.003L215.5 99.0031L213.5 38.0031L206 36.0031ZM180.5 151.503H187L192 149.003L196.5 146.003L198 137.003L192 128.503L186 115.503L181.5 104.503L179 99.0031L163.5 120.003V126.503L166 130.003L167.5 134.003L174 146.003L180.5 151.503Z" fill="#0C0000"/>
<path d="M228.5 25.0031L237 32.0031L232 55.5031L228.5 75.5031V80.5031L252.5 85.0031L249.5 99.0031H232L227 122.003L223 134.003L232 147.503L238.5 153.503L252.5 157.003V164.503L243.5 172.003H228.5L217.5 164.503L209 155.503L196.5 162.003L181.5 171.003L174 172.003L169.5 171.003L163.5 166.003L157 157.003L150.5 149.003L144.5 136.003L143 122.003L148.5 113.003L158.5 101.503L172 89.5031L176 87.5031L169.5 68.0031L166 45.0031V38.0031L180.5 27.0031L196.5 18.5031L215.5 19.5031L228.5 25.0031ZM228.5 25.0031L236 31.5031M206 36.0031H194.5H192L187 45.0031V53.0031L201 93.5031L211 108.003L215.5 99.0031L213.5 38.0031L206 36.0031ZM187 151.503H180.5L174 146.003L167.5 134.003L166 130.003L163.5 126.503V120.003L179 99.0031L181.5 104.503L186 115.503L192 128.503L198 137.003L196.5 146.003L192 149.003L187 151.503Z" stroke="black"/>
<path fill-rule="evenodd" clip-rule="evenodd" d="M175.5 87.0031L152 83.5031L152.5 79.5031L156.5 79.0031H159.5L166 70.5031L183 35.0031L196 9.00311L200.5 6.00311L205.5 3.50311L211 1.00311L215.5 2.00311L221.5 5.00311L225.5 8.00311L226 19.5031L227.5 56.0031L228.5 77.5031L230 79.0031H235.5L238.5 80.0031L239 82.0031L230 87.0031L217.5 86.0031L209 83.5031H204.5V80.5031L205.5 79.0031H211L212 77.5031L214 75.5031V53.5031H183L173.5 74.0031L169.5 77.5031V79.0031H178L185 80.0031V83.5031L180.5 86.0031L175.5 87.0031ZM187.5 45.0031H213V14.0031L209 12.0031L206.5 11.0031L203.5 10.5031L187.5 45.0031Z" fill="#550505" stroke="black"/>
<path fill-rule="evenodd" clip-rule="evenodd" d="M164.057 179.528L140.557 176.028L141.057 172.028L145.057 171.528H148.057L154.557 163.028L171.557 127.528L184.557 101.528L189.057 98.5275L194.057 96.0275L199.557 93.5275L204.057 94.5275L210.057 97.5275L214.057 100.528L214.557 112.028L216.057 148.528L217.057 170.028L218.557 171.528H224.057L227.057 172.528L227.557 174.528L218.557 179.528L206.057 178.528L197.557 176.028H193.057V173.028L194.057 171.528H199.557L200.557 170.028L202.557 168.028V146.028H171.557L162.057 166.528L158.057 170.028V171.528H166.557L173.557 172.528V176.028L169.057 178.528L164.057 179.528ZM176.057 137.528H201.557V106.528L197.557 104.528L195.057 103.528L192.057 103.028L176.057 137.528Z" fill="#550505" stroke="black"/>
<path fill-rule="evenodd" clip-rule="evenodd" d="M269.5 87.0031L242.5 82.5031L245.5 79.0031H247L251 78.5031L253.5 76.0031L256.5 69.0031L258.5 54.5031L261 44.0031L263 33.5031L265 22.5031L266 17.0031L269.5 11.0031V8.50311H258.5V6.50311L260.5 5.00311L262 4.00311L264.5 3.00311H294.5V8.00311L292.5 8.50311H290L286 10.0031L283.5 11.5031L281.5 16.0031L280.5 21.5031L278.5 30.0031L276.5 39.0031H278H290L295 28.5031L300.5 20.0031L305.5 12.5031L310.5 7.50311L314.5 3.00311H339V7.50311L336 8.50311L329.5 11.0031L324 14.0031L318.5 18.0031L312 25.0031L299.5 42.0031V44.0031L312 72.5031L314.5 75.5031L318.5 78.0031L324 78.5031L324.5 82.5031L318.5 86.0031L313.5 87.0031L307 86.0031L302 83.0031L297 74.0031L292 61.0031L287.5 49.5031L284.5 47.5031H275.5L272 63.0031L269.5 74.0031L267.5 78.0031L275.5 79.0031L279.5 80.5031V83.0031L269.5 87.0031Z" fill="#550505" stroke="black"/>
<path d="M237.5 163.003L243.5 148.003C244.667 148.003 247.5 147.603 247.5 148.003L250 149.003L250.5 157.003L251.5 165.003L256.5 166.503L263.5 168.503H272L279 166.503L282.5 162.003L285 154.003V148.003L280.5 145.003L273 143.003L265.5 140.003L253.5 135.003L246.5 131.003L246 128.503L246.5 120.003L249 110.503L252.5 103.503L258 99.5031L265 96.0031L272 94.0031L277.5 93.0031H287.5L291 94.0031L298.5 96.0031L306 100.503L299 121.003H293.5L291 120.003V110.503V105.003L286 103.003H275H269L265.5 106.003L262.5 112.503L260.5 120.003L261.5 123.003L268 125.503L281 130.003L295 136.003L300.5 140.003V147.003L299 156.503L294 168.503L287 172.503L280.5 175.503L269 179.003H258L254.5 177.503L242 172.503L236 169.003V166.503L237.5 163.003Z" fill="#550505" stroke="black"/>
<path d="M312.5 163.003L318.5 148.003C319.667 148.003 322.5 147.603 322.5 148.003L325 149.003L325.5 157.003L326.5 165.003L331.5 166.503L338.5 168.503H347L354 166.503L357.5 162.003L360 154.003V148.003L355.5 145.003L348 143.003L340.5 140.003L328.5 135.003L321.5 131.003L321 128.503L321.5 120.003L324 110.503L327.5 103.503L333 99.5031L340 96.0031L347 94.0031L352.5 93.0031H362.5L366 94.0031L373.5 96.0031L381 100.503L374 121.003H368.5L366 120.003V110.503V105.003L361 103.003H350H344L340.5 106.003L337.5 112.503L335.5 120.003L336.5 123.003L343 125.503L356 130.003L370 136.003L375.5 140.003V147.003L374 156.503L369 168.503L362 172.503L355.5 175.503L344 179.003H333L329.5 177.503L317 172.503L311 169.003V166.503L312.5 163.003Z" fill="#550505" stroke="black"/>
<path fill-rule="evenodd" clip-rule="evenodd" d="M115 87.0031H102L89 81.5031L83.5 77.5031L79 69.5031V54.5031L82 39.0031L86.5 22.0031L91 13.5031L99.5 8.00311L108 4.50311L118 2.00311L125 0.503113L133.5 1.00311L145 5.50311L151.5 10.0031L153.5 16.5031V37.5031L149.5 53.0031L140.5 74.0031L134.5 79.0031L121.5 84.5031L115 87.0031ZM94.5 55.0031V69.5031L98 73.0031L104 76.0031L110.5 77.5031H117L124 75.0031L129 69.5031L133 59.5031L136 47.5031L138.5 34.5031V18.0031L134.5 14.5031L126.5 11.0031H115L107 13.5031L103.5 20.0031L100.5 29.5031L97.5 41.0031L96 48.5031L94.5 55.0031Z" fill="#550505"/>
<path d="M115 87.0031H102M115 87.0031L121.5 84.5031L134.5 79.0031L140.5 74.0031L149.5 53.0031L153.5 37.5031V16.5031L151.5 10.0031L145 5.50311L133.5 1.00311L125 0.503113L118 2.00311L108 4.50311L99.5 8.00311L91 13.5031L86.5 22.0031L82 39.0031L79 54.5031V69.5031L83.5 77.5031L89 81.5031L102 87.0031M115 87.0031C110.833 87.0031 102.4 87.0031 102 87.0031M94.5 55.0031V69.5031L98 73.0031L104 76.0031L110.5 77.5031H117L124 75.0031L129 69.5031L133 59.5031L136 47.5031L138.5 34.5031V18.0031L134.5 14.5031L126.5 11.0031H115L107 13.5031L103.5 20.0031L100.5 29.5031L97.5 41.0031L96 48.5031L94.5 55.0031Z" stroke="black"/>
<path d="M58 121.003V106.003L54.5 104.503L46.5 102.503L38 103.503L31 104.503L27 107.003L23.5 115.003L19 131.503L16 146.003L15 158.003L16.5 162.003L21.5 166.503L29 169.503H36L47.5 167.003L53 145.003H35V143.503L37.5 136.003L68 134.503L69.5 137.003L65.5 149.003L60 171.003L48.5 176.003L37.5 178.503H22L16 176.503L8 172.003L2 166.503L0.5 162.003V147.003L3 131.503L7 116.003L12.5 105.003L22.5 99.5031L34.5 95.0031L43.5 93.0031H54.5L63.5 95.0031L73 100.003V103.503L68 119.503L66 122.003H60L58 121.003Z" fill="#550505" stroke="black"/>
<path d="M105.5 178.003L74 175.003L76.5 171.003L80.5 170.503L84.5 168.503L87.5 162.003L90 148.503L95.5 120.003L98.5 105.503L101 102.746V101.003H89L89.5 98.5031L92 96.5031L95.5 95.0031L125.5 94.5031V100.003L120.5 100.503L116.5 102.503L114 105.003L112 112.003L109 127.503L106 143.003L103 158.503L98.5 170.003H123L134 149.003H139L141.5 150.003L139 162.503L135 174.503L128.5 178.503L105.5 178.003Z" fill="#550505" stroke="black"/>
</svg>
